<svg width="22" height="22" viewBox="0 0 22 22" fill="none" xmlns="http://www.w3.org/2000/svg">
<g clip-path="url(#clip0_2704_501)">
<path d="M9.38942 14.9546L5.5 11.0642L6.79617 9.76805L9.38942 12.3604L14.5741 7.1748L15.8712 8.47189L9.38942 14.9546Z" fill="white"/>
<path fill-rule="evenodd" clip-rule="evenodd" d="M0.916748 11.0001C0.916748 5.43133 5.43133 0.916748 11.0001 0.916748C16.5688 0.916748 21.0834 5.43133 21.0834 11.0001C21.0834 16.5688 16.5688 21.0834 11.0001 21.0834C5.43133 21.0834 0.916748 16.5688 0.916748 11.0001ZM11.0001 19.2501C9.91668 19.2501 8.84388 19.0367 7.84294 18.6221C6.84201 18.2075 5.93253 17.5998 5.16645 16.8337C4.40037 16.0676 3.79268 15.1582 3.37808 14.1572C2.96347 13.1563 2.75008 12.0835 2.75008 11.0001C2.75008 9.91668 2.96347 8.84388 3.37808 7.84294C3.79268 6.84201 4.40037 5.93253 5.16645 5.16645C5.93253 4.40037 6.84201 3.79268 7.84294 3.37808C8.84388 2.96347 9.91668 2.75008 11.0001 2.75008C13.1881 2.75008 15.2865 3.61928 16.8337 5.16645C18.3809 6.71363 19.2501 8.81205 19.2501 11.0001C19.2501 13.1881 18.3809 15.2865 16.8337 16.8337C15.2865 18.3809 13.1881 19.2501 11.0001 19.2501Z" fill="white"/>
</g>
<defs>
<clipPath id="clip0_2704_501">
<rect width="22" height="22" fill="white"/>
</clipPath>
</defs>
</svg>
