<svg width="20" height="21" viewBox="0 0 20 21" fill="none" xmlns="http://www.w3.org/2000/svg">
<path d="M11.6667 3.41675C11.6667 4.10841 11.1083 4.66675 10.4167 4.66675C9.725 4.66675 9.16667 4.10841 9.16667 3.41675C9.16667 2.72508 9.725 2.16675 10.4167 2.16675C11.1083 2.16675 11.6667 2.72508 11.6667 3.41675ZM7.08333 4.66675C6.39167 4.66675 5.83333 5.22508 5.83333 5.91675C5.83333 6.60841 6.39167 7.16675 7.08333 7.16675C7.775 7.16675 8.33333 6.60841 8.33333 5.91675C8.33333 5.22508 7.775 4.66675 7.08333 4.66675ZM11.6667 10.5001L11.0167 8.62508H13.4833L15.2833 7.72508C15.5917 7.58341 15.7167 7.20008 15.5583 6.89175C15.5231 6.81766 15.4733 6.75139 15.412 6.69685C15.3507 6.64231 15.2791 6.60061 15.2015 6.57419C15.1238 6.54778 15.0416 6.5372 14.9598 6.54308C14.8779 6.54896 14.7981 6.57117 14.725 6.60841L14.0417 6.95008L13.6333 6.25008C13.3917 5.70841 12.8 5.40008 12.2167 5.53341L10.1583 5.97508C9.58333 6.10008 9.16667 6.62508 9.16667 7.22508V7.80841L7.14167 9.15841H7.15C7.08333 9.21675 6.99167 9.29175 6.94167 9.39175L6.2 10.8667L4.71667 11.6084C4.40833 11.7501 4.28333 12.1417 4.44167 12.4501C4.51709 12.5979 4.64799 12.7098 4.80572 12.7613C4.96346 12.8129 5.13519 12.7998 5.28333 12.7251L7.13333 11.8001L8 10.0834L9.16667 11.3334C8.33333 13.8334 2.5 17.1667 2.5 17.1667C2.5 17.1667 5.83333 18.8334 10 18.8334C14.1667 18.8334 17.5 17.1667 17.5 17.1667C17.5 17.1667 13.3333 13.8334 11.6667 10.5001ZM14.0417 9.74175L13.775 9.87508H12.775L12.825 10.0084C13.2583 10.8667 13.8917 11.7501 14.5833 12.5334L14.1417 9.69175L14.0417 9.74175Z" fill="#5E71FF"/>
</svg>
